<svg width="24" height="24" viewBox="0 0 24 24" fill="none" xmlns="http://www.w3.org/2000/svg">
<g id="flat-color-icons:google">
<g clip-path="url(#clip0_2192_5700)">
<g id="Group 2212">
<path id="Vector" d="M23.7662 9.64963H22.7996V9.59983H11.9998V14.3998H18.7815C17.7921 17.1939 15.1335 19.1997 11.9998 19.1997C8.02366 19.1997 4.79992 15.9759 4.79992 11.9998C4.79992 8.02366 8.02366 4.79992 11.9998 4.79992C13.8352 4.79992 15.5049 5.4923 16.7763 6.62329L20.1705 3.22914C18.0273 1.23178 15.1605 0 11.9998 0C5.37291 0 0 5.37291 0 11.9998C0 18.6267 5.37291 23.9996 11.9998 23.9996C18.6267 23.9996 23.9996 18.6267 23.9996 11.9998C23.9996 11.1952 23.9168 10.4098 23.7662 9.64963Z" fill="#FFC107"/>
<path id="Vector_2" d="M1.38281 6.41449L5.32534 9.30584C6.39213 6.66468 8.97568 4.79992 11.999 4.79992C13.8344 4.79992 15.5042 5.4923 16.7755 6.62328L20.1697 3.22914C18.0265 1.23178 15.1598 0 11.999 0C7.38991 0 3.39278 2.60215 1.38281 6.41449Z" fill="#FF3D00"/>
<path id="Vector_3" d="M11.9992 23.9991C15.0988 23.9991 17.9151 22.8129 20.0445 20.8839L16.3305 17.7412C15.0853 18.6882 13.5637 19.2004 11.9992 19.1992C8.87808 19.1992 6.22792 17.209 5.22954 14.4316L1.31641 17.4466C3.30237 21.3327 7.3355 23.9991 11.9992 23.9991Z" fill="#4CAF50"/>
<path id="Vector_4" d="M23.7664 9.64941H22.7998V9.59961H12V14.3995H18.7817C18.3084 15.7294 17.4559 16.8914 16.3295 17.7421L16.3313 17.7409L20.0453 20.8836C19.7825 21.1224 23.9998 17.9995 23.9998 11.9996C23.9998 11.195 23.917 10.4096 23.7664 9.64941Z" fill="#1976D2"/>
</g>
</g>
</g>
<defs>
<clipPath id="clip0_2192_5700">
<rect width="24" height="24" rx="12" fill="white"/>
</clipPath>
</defs>
</svg>
